<svg width="1200" height="750" viewBox="0 0 1200 750" fill="none" xmlns="http://www.w3.org/2000/svg">
  <rect width="1200" height="750" fill="#090909"/>
  <circle cx="914" cy="124" r="174" fill="#22C55E" fill-opacity="0.22"/>
  <circle cx="236" cy="628" r="132" fill="white" fill-opacity="0.05"/>
  <rect x="90" y="78" width="1020" height="594" rx="36" fill="#101010" stroke="#212121" stroke-width="2"/>
  <text x="126" y="160" fill="white" font-family="Arial, sans-serif" font-size="44" font-weight="700">Hyundai Ioniq 2020</text>
  <text x="126" y="215" fill="#B3B3B3" font-family="Arial, sans-serif" font-size="24">Hibridni model s urednom opremom i niskom potrošnjom</text>
  <g>
    <rect x="212" y="360" width="714" height="118" rx="54" fill="#F3F3F3"/>
    <path d="M336 300C356 284 384 276 418 276H642C684 276 718 292 752 332L820 360H274L336 300Z" fill="#F3F3F3"/>
    <rect x="392" y="308" width="112" height="44" rx="14" fill="#D6E7F4"/>
    <rect x="522" y="308" width="130" height="44" rx="14" fill="#D6E7F4"/>
    <circle cx="358" cy="500" r="58" fill="#111111"/>
    <circle cx="778" cy="500" r="58" fill="#111111"/>
    <circle cx="358" cy="500" r="28" fill="#808080"/>
    <circle cx="778" cy="500" r="28" fill="#808080"/>
    <rect x="842" y="396" width="52" height="20" rx="10" fill="#22C55E"/>
    <rect x="244" y="396" width="48" height="20" rx="10" fill="#22C55E"/>
  </g>
</svg>
