<svg width="1200" height="750" viewBox="0 0 1200 750" fill="none" xmlns="http://www.w3.org/2000/svg">
  <rect width="1200" height="750" fill="#080808"/>
  <circle cx="980" cy="96" r="180" fill="#22C55E" fill-opacity="0.18"/>
  <rect x="90" y="78" width="1020" height="594" rx="36" fill="#121212" stroke="#242424" stroke-width="2"/>
  <text x="126" y="160" fill="white" font-family="Arial, sans-serif" font-size="44" font-weight="700">Škoda Octavia 2019</text>
  <text x="126" y="215" fill="#B3B3B3" font-family="Arial, sans-serif" font-size="24">Prostrano vozilo za dnevni rad i transfer vožnje</text>
  <g>
    <rect x="190" y="364" width="744" height="122" rx="48" fill="#EBEBEB"/>
    <path d="M338 298C346 284 366 274 390 274H664C710 274 740 290 768 332L836 364H260L338 298Z" fill="#EBEBEB"/>
    <rect x="384" y="302" width="114" height="48" rx="14" fill="#D8E4F0"/>
    <rect x="512" y="302" width="138" height="48" rx="14" fill="#D8E4F0"/>
    <circle cx="360" cy="514" r="58" fill="#111111"/>
    <circle cx="772" cy="514" r="58" fill="#111111"/>
    <circle cx="360" cy="514" r="28" fill="#848484"/>
    <circle cx="772" cy="514" r="28" fill="#848484"/>
    <rect x="842" y="402" width="62" height="18" rx="9" fill="#22C55E"/>
    <rect x="218" y="404" width="54" height="18" rx="9" fill="#22C55E"/>
  </g>
</svg>
