<svg width="1200" height="750" viewBox="0 0 1200 750" fill="none" xmlns="http://www.w3.org/2000/svg">
  <rect width="1200" height="750" fill="#0A0A0A"/>
  <circle cx="940" cy="140" r="190" fill="#22C55E" fill-opacity="0.22"/>
  <circle cx="260" cy="620" r="160" fill="white" fill-opacity="0.07"/>
  <rect x="90" y="78" width="1020" height="594" rx="36" fill="#131313" stroke="#232323" stroke-width="2"/>
  <text x="126" y="160" fill="white" font-family="Arial, sans-serif" font-size="44" font-weight="700">Toyota Corolla Hybrid 2021</text>
  <text x="126" y="215" fill="#B3B3B3" font-family="Arial, sans-serif" font-size="24">Vozilo spremno za rad kroz TAXI FLOTA flotu</text>
  <g>
    <rect x="220" y="360" width="660" height="120" rx="56" fill="#F4F4F4"/>
    <rect x="342" y="292" width="300" height="92" rx="34" fill="#F4F4F4"/>
    <rect x="376" y="312" width="104" height="48" rx="16" fill="#D7E6F3"/>
    <rect x="492" y="312" width="118" height="48" rx="16" fill="#D7E6F3"/>
    <circle cx="354" cy="506" r="56" fill="#111111"/>
    <circle cx="748" cy="506" r="56" fill="#111111"/>
    <circle cx="354" cy="506" r="28" fill="#808080"/>
    <circle cx="748" cy="506" r="28" fill="#808080"/>
    <rect x="806" y="388" width="50" height="24" rx="10" fill="#22C55E"/>
    <rect x="244" y="394" width="44" height="20" rx="10" fill="#22C55E"/>
  </g>
</svg>
